<mxfile host="app.diagrams.net" agent="Mozilla/5.0 (Windows NT 10.0; Win64; x64) AppleWebKit/537.36 (KHTML, like Gecko) Chrome/138.0.0.0 Safari/537.36" version="28.0.4">
  <diagram name="PÃ¡gina-1" id="u6XlSzbESMKMIET1rnBE">
    <mxGraphModel grid="1" page="1" gridSize="10" guides="1" tooltips="1" connect="1" arrows="1" fold="1" pageScale="1" pageWidth="1100" pageHeight="850" math="0" shadow="0">
      <root>
        <mxCell id="0" />
        <mxCell id="1" parent="0" />
        <mxCell id="rQ5A5fAagPQQUPKJqJmI-42" value="VPC" style="sketch=0;outlineConnect=0;gradientColor=none;html=1;whiteSpace=wrap;fontSize=12;fontStyle=0;shape=mxgraph.aws4.group;grIcon=mxgraph.aws4.group_vpc;strokeColor=#879196;fillColor=none;verticalAlign=top;align=left;spacingLeft=30;fontColor=#879196;dashed=0;" vertex="1" parent="1">
          <mxGeometry x="524" y="-208" width="2006" height="998" as="geometry" />
        </mxCell>
        <mxCell id="rQ5A5fAagPQQUPKJqJmI-35" style="edgeStyle=orthogonalEdgeStyle;rounded=0;orthogonalLoop=1;jettySize=auto;html=1;" edge="1" parent="1" source="rQ5A5fAagPQQUPKJqJmI-31" target="DKP5r3CZD2sw3bRLFVpG-42">
          <mxGeometry relative="1" as="geometry">
            <Array as="points">
              <mxPoint x="2359" y="750" />
              <mxPoint x="220" y="750" />
            </Array>
          </mxGeometry>
        </mxCell>
        <mxCell id="rQ5A5fAagPQQUPKJqJmI-18" style="edgeStyle=orthogonalEdgeStyle;rounded=0;orthogonalLoop=1;jettySize=auto;html=1;entryX=0;entryY=0.5;entryDx=0;entryDy=0;entryPerimeter=0;" edge="1" parent="1" source="rQ5A5fAagPQQUPKJqJmI-12" target="DKP5r3CZD2sw3bRLFVpG-31">
          <mxGeometry relative="1" as="geometry">
            <Array as="points">
              <mxPoint x="589" y="380" />
              <mxPoint x="864" y="380" />
              <mxPoint x="864" y="379" />
            </Array>
          </mxGeometry>
        </mxCell>
        <mxCell id="DKP5r3CZD2sw3bRLFVpG-21" value="web" style="sketch=0;outlineConnect=0;gradientColor=none;fontColor=#545B64;strokeColor=none;fillColor=#879196;dashed=0;verticalLabelPosition=bottom;verticalAlign=top;align=center;html=1;fontSize=12;fontStyle=0;aspect=fixed;shape=mxgraph.aws4.illustration_desktop;pointerEvents=1" vertex="1" parent="1">
          <mxGeometry x="170" y="160" width="100" height="91" as="geometry" />
        </mxCell>
        <mxCell id="DKP5r3CZD2sw3bRLFVpG-27" style="edgeStyle=orthogonalEdgeStyle;rounded=0;orthogonalLoop=1;jettySize=auto;html=1;" edge="1" parent="1" source="DKP5r3CZD2sw3bRLFVpG-23" target="DKP5r3CZD2sw3bRLFVpG-21">
          <mxGeometry relative="1" as="geometry" />
        </mxCell>
        <mxCell id="DKP5r3CZD2sw3bRLFVpG-23" value="Backoffice" style="sketch=0;outlineConnect=0;fontColor=#232F3E;gradientColor=none;fillColor=#232F3D;strokeColor=none;dashed=0;verticalLabelPosition=bottom;verticalAlign=top;align=center;html=1;fontSize=12;fontStyle=0;aspect=fixed;pointerEvents=1;shape=mxgraph.aws4.user;" vertex="1" parent="1">
          <mxGeometry x="20" y="167" width="78" height="78" as="geometry" />
        </mxCell>
        <mxCell id="DKP5r3CZD2sw3bRLFVpG-28" style="edgeStyle=orthogonalEdgeStyle;rounded=0;orthogonalLoop=1;jettySize=auto;html=1;" edge="1" parent="1" source="DKP5r3CZD2sw3bRLFVpG-24">
          <mxGeometry relative="1" as="geometry">
            <mxPoint x="170" y="339.0588235294117" as="targetPoint" />
          </mxGeometry>
        </mxCell>
        <mxCell id="DKP5r3CZD2sw3bRLFVpG-24" value="AirBnB Host" style="sketch=0;outlineConnect=0;fontColor=#232F3E;gradientColor=none;fillColor=#232F3D;strokeColor=none;dashed=0;verticalLabelPosition=bottom;verticalAlign=top;align=center;html=1;fontSize=12;fontStyle=0;aspect=fixed;pointerEvents=1;shape=mxgraph.aws4.user;" vertex="1" parent="1">
          <mxGeometry x="20" y="300" width="78" height="78" as="geometry" />
        </mxCell>
        <mxCell id="DKP5r3CZD2sw3bRLFVpG-29" style="edgeStyle=orthogonalEdgeStyle;rounded=0;orthogonalLoop=1;jettySize=auto;html=1;" edge="1" parent="1" source="DKP5r3CZD2sw3bRLFVpG-26">
          <mxGeometry relative="1" as="geometry">
            <mxPoint x="170" y="479.0588235294117" as="targetPoint" />
          </mxGeometry>
        </mxCell>
        <mxCell id="DKP5r3CZD2sw3bRLFVpG-26" value="AirBnB Customer" style="sketch=0;outlineConnect=0;fontColor=#232F3E;gradientColor=none;fillColor=#232F3D;strokeColor=none;dashed=0;verticalLabelPosition=bottom;verticalAlign=top;align=center;html=1;fontSize=12;fontStyle=0;aspect=fixed;pointerEvents=1;shape=mxgraph.aws4.user;" vertex="1" parent="1">
          <mxGeometry x="20" y="440" width="78" height="78" as="geometry" />
        </mxCell>
        <mxCell id="DKP5r3CZD2sw3bRLFVpG-42" value="devices" style="sketch=0;outlineConnect=0;gradientColor=none;fontColor=#545B64;strokeColor=none;fillColor=#879196;dashed=0;verticalLabelPosition=bottom;verticalAlign=top;align=center;html=1;fontSize=12;fontStyle=0;aspect=fixed;shape=mxgraph.aws4.illustration_devices;pointerEvents=1" vertex="1" parent="1">
          <mxGeometry x="170" y="430" width="100" height="73" as="geometry" />
        </mxCell>
        <mxCell id="DKP5r3CZD2sw3bRLFVpG-43" value="devices" style="sketch=0;outlineConnect=0;gradientColor=none;fontColor=#545B64;strokeColor=none;fillColor=#879196;dashed=0;verticalLabelPosition=bottom;verticalAlign=top;align=center;html=1;fontSize=12;fontStyle=0;aspect=fixed;shape=mxgraph.aws4.illustration_devices;pointerEvents=1" vertex="1" parent="1">
          <mxGeometry x="170" y="290" width="100" height="73" as="geometry" />
        </mxCell>
        <mxCell id="DKP5r3CZD2sw3bRLFVpG-30" value="AWS Cloud" style="points=[[0,0],[0.25,0],[0.5,0],[0.75,0],[1,0],[1,0.25],[1,0.5],[1,0.75],[1,1],[0.75,1],[0.5,1],[0.25,1],[0,1],[0,0.75],[0,0.5],[0,0.25]];outlineConnect=0;gradientColor=none;html=1;whiteSpace=wrap;fontSize=12;fontStyle=0;container=0;pointerEvents=0;collapsible=0;recursiveResize=0;shape=mxgraph.aws4.group;grIcon=mxgraph.aws4.group_aws_cloud_alt;strokeColor=#232F3E;fillColor=none;verticalAlign=top;align=left;spacingLeft=30;fontColor=#232F3E;dashed=0;movable=1;resizable=1;rotatable=1;deletable=1;editable=1;locked=0;connectable=1;" vertex="1" parent="1">
          <mxGeometry x="350" y="-220" width="2200" height="1020" as="geometry" />
        </mxCell>
        <mxCell id="DKP5r3CZD2sw3bRLFVpG-49" value="external OAuth provider" style="html=1;dashed=0;whiteSpace=wrap;movable=1;resizable=1;rotatable=1;deletable=1;editable=1;locked=0;connectable=1;container=0;" vertex="1" parent="1">
          <mxGeometry x="941" y="850" width="100" height="50" as="geometry" />
        </mxCell>
        <mxCell id="DKP5r3CZD2sw3bRLFVpG-50" style="edgeStyle=orthogonalEdgeStyle;rounded=0;orthogonalLoop=1;jettySize=auto;html=1;entryX=0.5;entryY=0;entryDx=0;entryDy=0;movable=1;resizable=1;rotatable=1;deletable=1;editable=1;locked=0;connectable=1;" edge="1" parent="1" source="DKP5r3CZD2sw3bRLFVpG-46" target="DKP5r3CZD2sw3bRLFVpG-49">
          <mxGeometry relative="1" as="geometry" />
        </mxCell>
        <mxCell id="DKP5r3CZD2sw3bRLFVpG-53" value="Transforms Authentication into Token" style="edgeLabel;html=1;align=center;verticalAlign=middle;resizable=1;points=[];movable=1;rotatable=1;deletable=1;editable=1;locked=0;connectable=1;container=0;" connectable="0" vertex="1" parent="DKP5r3CZD2sw3bRLFVpG-50">
          <mxGeometry x="-0.5432" y="-1" relative="1" as="geometry">
            <mxPoint x="110" y="-18" as="offset" />
          </mxGeometry>
        </mxCell>
        <mxCell id="DKP5r3CZD2sw3bRLFVpG-51" value="&lt;h1 style=&quot;margin-top: 0px;&quot;&gt;External OAuth provider&lt;/h1&gt;&lt;p&gt;Having an external OAuth provider keeps your Keys safe out of your infrastructure&lt;/p&gt;" style="text;html=1;whiteSpace=wrap;overflow=hidden;rounded=0;movable=1;resizable=1;rotatable=1;deletable=1;editable=1;locked=0;connectable=1;container=0;" vertex="1" parent="1">
          <mxGeometry x="740" y="820" width="180" height="120" as="geometry" />
        </mxCell>
        <mxCell id="DKP5r3CZD2sw3bRLFVpG-75" value="Document DB" style="sketch=0;points=[[0,0,0],[0.25,0,0],[0.5,0,0],[0.75,0,0],[1,0,0],[0,1,0],[0.25,1,0],[0.5,1,0],[0.75,1,0],[1,1,0],[0,0.25,0],[0,0.5,0],[0,0.75,0],[1,0.25,0],[1,0.5,0],[1,0.75,0]];outlineConnect=0;fontColor=#232F3E;fillColor=#C925D1;strokeColor=#ffffff;dashed=0;verticalLabelPosition=bottom;verticalAlign=top;align=center;html=1;fontSize=12;fontStyle=0;aspect=fixed;shape=mxgraph.aws4.resourceIcon;resIcon=mxgraph.aws4.documentdb_with_mongodb_compatibility;movable=1;resizable=1;rotatable=1;deletable=1;editable=1;locked=0;connectable=1;container=0;" vertex="1" parent="1">
          <mxGeometry x="2150" y="-31" width="78" height="78" as="geometry" />
        </mxCell>
        <mxCell id="DKP5r3CZD2sw3bRLFVpG-40" style="edgeStyle=orthogonalEdgeStyle;rounded=0;orthogonalLoop=1;jettySize=auto;html=1;movable=1;resizable=1;rotatable=1;deletable=1;editable=1;locked=0;connectable=1;" edge="1" parent="1" source="DKP5r3CZD2sw3bRLFVpG-31">
          <mxGeometry relative="1" as="geometry">
            <mxPoint x="991.0000000000002" y="610" as="targetPoint" />
            <Array as="points">
              <mxPoint x="1210" y="379" />
              <mxPoint x="1210" y="560" />
              <mxPoint x="992" y="560" />
              <mxPoint x="992" y="610" />
            </Array>
          </mxGeometry>
        </mxCell>
        <mxCell id="DKP5r3CZD2sw3bRLFVpG-41" value="Authentication&amp;nbsp;&lt;div&gt;functions&lt;div&gt;&lt;br&gt;&lt;/div&gt;&lt;/div&gt;" style="edgeLabel;html=1;align=center;verticalAlign=middle;resizable=1;points=[];movable=1;rotatable=1;deletable=1;editable=1;locked=0;connectable=1;container=0;" connectable="0" vertex="1" parent="DKP5r3CZD2sw3bRLFVpG-40">
          <mxGeometry x="0.3093" y="-2" relative="1" as="geometry">
            <mxPoint as="offset" />
          </mxGeometry>
        </mxCell>
        <mxCell id="DKP5r3CZD2sw3bRLFVpG-31" value="api gateway" style="sketch=0;points=[[0,0,0],[0.25,0,0],[0.5,0,0],[0.75,0,0],[1,0,0],[0,1,0],[0.25,1,0],[0.5,1,0],[0.75,1,0],[1,1,0],[0,0.25,0],[0,0.5,0],[0,0.75,0],[1,0.25,0],[1,0.5,0],[1,0.75,0]];outlineConnect=0;fontColor=#232F3E;fillColor=#8C4FFF;strokeColor=#ffffff;dashed=0;verticalLabelPosition=bottom;verticalAlign=top;align=center;html=1;fontSize=12;fontStyle=0;aspect=fixed;shape=mxgraph.aws4.resourceIcon;resIcon=mxgraph.aws4.api_gateway;movable=1;resizable=1;rotatable=1;deletable=1;editable=1;locked=0;connectable=1;container=0;" vertex="1" parent="1">
          <mxGeometry x="1100" y="340" width="78" height="78" as="geometry" />
        </mxCell>
        <mxCell id="DKP5r3CZD2sw3bRLFVpG-46" value="" style="sketch=0;points=[[0,0,0],[0.25,0,0],[0.5,0,0],[0.75,0,0],[1,0,0],[0,1,0],[0.25,1,0],[0.5,1,0],[0.75,1,0],[1,1,0],[0,0.25,0],[0,0.5,0],[0,0.75,0],[1,0.25,0],[1,0.5,0],[1,0.75,0]];outlineConnect=0;fontColor=#232F3E;fillColor=#ED7100;strokeColor=#ffffff;dashed=0;verticalLabelPosition=bottom;verticalAlign=top;align=center;html=1;fontSize=12;fontStyle=0;aspect=fixed;shape=mxgraph.aws4.resourceIcon;resIcon=mxgraph.aws4.lambda;movable=1;resizable=1;rotatable=1;deletable=1;editable=1;locked=0;connectable=1;container=0;" vertex="1" parent="1">
          <mxGeometry x="952" y="610" width="78" height="78" as="geometry" />
        </mxCell>
        <mxCell id="DKP5r3CZD2sw3bRLFVpG-54" value="Validates if token has valid access" style="edgeLabel;html=1;align=center;verticalAlign=middle;resizable=1;points=[];movable=1;rotatable=1;deletable=1;editable=1;locked=0;connectable=1;container=0;" connectable="0" vertex="1" parent="1">
          <mxGeometry x="1094" y="727" as="geometry" />
        </mxCell>
        <mxCell id="DKP5r3CZD2sw3bRLFVpG-57" style="edgeStyle=orthogonalEdgeStyle;rounded=0;orthogonalLoop=1;jettySize=auto;html=1;entryX=0.005;entryY=0.63;entryDx=0;entryDy=0;entryPerimeter=0;movable=1;resizable=1;rotatable=1;deletable=1;editable=1;locked=0;connectable=1;" edge="1" parent="1" source="DKP5r3CZD2sw3bRLFVpG-31" target="DKP5r3CZD2sw3bRLFVpG-55">
          <mxGeometry relative="1" as="geometry" />
        </mxCell>
        <mxCell id="DKP5r3CZD2sw3bRLFVpG-59" style="edgeStyle=orthogonalEdgeStyle;rounded=0;orthogonalLoop=1;jettySize=auto;html=1;entryX=0.005;entryY=0.63;entryDx=0;entryDy=0;entryPerimeter=0;movable=1;resizable=1;rotatable=1;deletable=1;editable=1;locked=0;connectable=1;" edge="1" parent="1" source="DKP5r3CZD2sw3bRLFVpG-31" target="DKP5r3CZD2sw3bRLFVpG-58">
          <mxGeometry relative="1" as="geometry" />
        </mxCell>
        <mxCell id="DKP5r3CZD2sw3bRLFVpG-79" style="edgeStyle=orthogonalEdgeStyle;rounded=0;orthogonalLoop=1;jettySize=auto;html=1;entryX=0.5;entryY=0;entryDx=0;entryDy=0;entryPerimeter=0;movable=1;resizable=1;rotatable=1;deletable=1;editable=1;locked=0;connectable=1;" edge="1" parent="1" source="DKP5r3CZD2sw3bRLFVpG-55" target="DKP5r3CZD2sw3bRLFVpG-107">
          <mxGeometry relative="1" as="geometry">
            <mxPoint x="1659" y="333" as="targetPoint" />
          </mxGeometry>
        </mxCell>
        <mxCell id="DKP5r3CZD2sw3bRLFVpG-58" value="Host BFF" style="aspect=fixed;sketch=0;html=1;dashed=0;whitespace=wrap;verticalLabelPosition=bottom;verticalAlign=top;fillColor=#2875E2;strokeColor=#ffffff;points=[[0.005,0.63,0],[0.1,0.2,0],[0.9,0.2,0],[0.5,0,0],[0.995,0.63,0],[0.72,0.99,0],[0.5,1,0],[0.28,0.99,0]];shape=mxgraph.kubernetes.icon2;prIcon=pod;movable=1;resizable=1;rotatable=1;deletable=1;editable=1;locked=0;connectable=1;container=0;" vertex="1" parent="1">
          <mxGeometry x="1490" y="348" width="50" height="48" as="geometry" />
        </mxCell>
        <mxCell id="DKP5r3CZD2sw3bRLFVpG-81" style="edgeStyle=orthogonalEdgeStyle;rounded=0;orthogonalLoop=1;jettySize=auto;html=1;entryX=0.5;entryY=1;entryDx=0;entryDy=0;entryPerimeter=0;movable=1;resizable=1;rotatable=1;deletable=1;editable=1;locked=0;connectable=1;" edge="1" parent="1" source="DKP5r3CZD2sw3bRLFVpG-60" target="DKP5r3CZD2sw3bRLFVpG-107">
          <mxGeometry relative="1" as="geometry">
            <mxPoint x="1659" y="411" as="targetPoint" />
          </mxGeometry>
        </mxCell>
        <mxCell id="DKP5r3CZD2sw3bRLFVpG-60" value="Customer BFF" style="aspect=fixed;sketch=0;html=1;dashed=0;whitespace=wrap;verticalLabelPosition=bottom;verticalAlign=top;fillColor=#2875E2;strokeColor=#ffffff;points=[[0.005,0.63,0],[0.1,0.2,0],[0.9,0.2,0],[0.5,0,0],[0.995,0.63,0],[0.72,0.99,0],[0.5,1,0],[0.28,0.99,0]];shape=mxgraph.kubernetes.icon2;prIcon=pod;movable=1;resizable=1;rotatable=1;deletable=1;editable=1;locked=0;connectable=1;container=0;" vertex="1" parent="1">
          <mxGeometry x="1490" y="499" width="50" height="48" as="geometry" />
        </mxCell>
        <mxCell id="DKP5r3CZD2sw3bRLFVpG-61" style="edgeStyle=orthogonalEdgeStyle;rounded=0;orthogonalLoop=1;jettySize=auto;html=1;entryX=0.005;entryY=0.63;entryDx=0;entryDy=0;entryPerimeter=0;movable=1;resizable=1;rotatable=1;deletable=1;editable=1;locked=0;connectable=1;" edge="1" parent="1" source="DKP5r3CZD2sw3bRLFVpG-31" target="DKP5r3CZD2sw3bRLFVpG-60">
          <mxGeometry relative="1" as="geometry" />
        </mxCell>
        <mxCell id="DKP5r3CZD2sw3bRLFVpG-62" value="&lt;h1 style=&quot;margin-top: 0px;&quot;&gt;API Gateway&lt;/h1&gt;&lt;div&gt;Controls and redirect requests&lt;/div&gt;&lt;div&gt;Security controls to reduce throtling&lt;/div&gt;&lt;div&gt;Hides real APIs from Real world&lt;/div&gt;" style="text;html=1;whiteSpace=wrap;overflow=hidden;rounded=0;movable=1;resizable=1;rotatable=1;deletable=1;editable=1;locked=0;connectable=1;container=0;" vertex="1" parent="1">
          <mxGeometry x="920" y="396" width="180" height="120" as="geometry" />
        </mxCell>
        <mxCell id="DKP5r3CZD2sw3bRLFVpG-63" value="" style="sketch=0;points=[[0,0,0],[0.25,0,0],[0.5,0,0],[0.75,0,0],[1,0,0],[0,1,0],[0.25,1,0],[0.5,1,0],[0.75,1,0],[1,1,0],[0,0.25,0],[0,0.5,0],[0,0.75,0],[1,0.25,0],[1,0.5,0],[1,0.75,0]];outlineConnect=0;fontColor=#232F3E;fillColor=#DD344C;strokeColor=#ffffff;dashed=0;verticalLabelPosition=bottom;verticalAlign=top;align=center;html=1;fontSize=12;fontStyle=0;aspect=fixed;shape=mxgraph.aws4.resourceIcon;resIcon=mxgraph.aws4.waf;movable=1;resizable=1;rotatable=1;deletable=1;editable=1;locked=0;connectable=1;container=0;" vertex="1" parent="1">
          <mxGeometry x="1150" y="294" width="39" height="39" as="geometry" />
        </mxCell>
        <mxCell id="DKP5r3CZD2sw3bRLFVpG-64" value="&lt;h1 style=&quot;margin-top: 0px;&quot;&gt;WAF Firewall&lt;/h1&gt;&lt;p&gt;The web application firewall protects our system with a set of configured network rules to prevent users throttling, hacking spoofing, etc&lt;/p&gt;" style="text;html=1;whiteSpace=wrap;overflow=hidden;rounded=0;movable=1;resizable=1;rotatable=1;deletable=1;editable=1;locked=0;connectable=1;container=0;" vertex="1" parent="1">
          <mxGeometry x="1150" y="161" width="180" height="120" as="geometry" />
        </mxCell>
        <mxCell id="DKP5r3CZD2sw3bRLFVpG-76" style="edgeStyle=orthogonalEdgeStyle;rounded=0;orthogonalLoop=1;jettySize=auto;html=1;movable=1;resizable=1;rotatable=1;deletable=1;editable=1;locked=0;connectable=1;" edge="1" parent="1" source="DKP5r3CZD2sw3bRLFVpG-66" target="DKP5r3CZD2sw3bRLFVpG-68">
          <mxGeometry relative="1" as="geometry" />
        </mxCell>
        <mxCell id="DKP5r3CZD2sw3bRLFVpG-115" style="edgeStyle=orthogonalEdgeStyle;rounded=0;orthogonalLoop=1;jettySize=auto;html=1;movable=1;resizable=1;rotatable=1;deletable=1;editable=1;locked=0;connectable=1;" edge="1" parent="1" source="DKP5r3CZD2sw3bRLFVpG-70" target="DKP5r3CZD2sw3bRLFVpG-75">
          <mxGeometry relative="1" as="geometry">
            <Array as="points">
              <mxPoint x="1835" y="-51" />
              <mxPoint x="2189" y="-51" />
            </Array>
          </mxGeometry>
        </mxCell>
        <mxCell id="DKP5r3CZD2sw3bRLFVpG-77" style="edgeStyle=orthogonalEdgeStyle;rounded=0;orthogonalLoop=1;jettySize=auto;html=1;movable=1;resizable=1;rotatable=1;deletable=1;editable=1;locked=0;connectable=1;" edge="1" parent="1" source="DKP5r3CZD2sw3bRLFVpG-70" target="DKP5r3CZD2sw3bRLFVpG-73">
          <mxGeometry relative="1" as="geometry" />
        </mxCell>
        <mxCell id="rQ5A5fAagPQQUPKJqJmI-34" style="edgeStyle=orthogonalEdgeStyle;rounded=0;orthogonalLoop=1;jettySize=auto;html=1;" edge="1" parent="1" source="DKP5r3CZD2sw3bRLFVpG-70" target="rQ5A5fAagPQQUPKJqJmI-31">
          <mxGeometry relative="1" as="geometry" />
        </mxCell>
        <mxCell id="DKP5r3CZD2sw3bRLFVpG-70" value="Schedule Service" style="aspect=fixed;sketch=0;html=1;dashed=0;whitespace=wrap;verticalLabelPosition=bottom;verticalAlign=top;fillColor=#2875E2;strokeColor=#ffffff;points=[[0.005,0.63,0],[0.1,0.2,0],[0.9,0.2,0],[0.5,0,0],[0.995,0.63,0],[0.72,0.99,0],[0.5,1,0],[0.28,0.99,0]];shape=mxgraph.kubernetes.icon2;prIcon=pod;movable=1;resizable=1;rotatable=1;deletable=1;editable=1;locked=0;connectable=1;container=0;" vertex="1" parent="1">
          <mxGeometry x="1810" y="348" width="50" height="48" as="geometry" />
        </mxCell>
        <mxCell id="DKP5r3CZD2sw3bRLFVpG-73" value="Schedule Database" style="sketch=0;points=[[0,0,0],[0.25,0,0],[0.5,0,0],[0.75,0,0],[1,0,0],[0,1,0],[0.25,1,0],[0.5,1,0],[0.75,1,0],[1,1,0],[0,0.25,0],[0,0.5,0],[0,0.75,0],[1,0.25,0],[1,0.5,0],[1,0.75,0]];outlineConnect=0;fontColor=#232F3E;fillColor=#C925D1;strokeColor=#ffffff;dashed=0;verticalLabelPosition=bottom;verticalAlign=top;align=center;html=1;fontSize=12;fontStyle=0;aspect=fixed;shape=mxgraph.aws4.resourceIcon;resIcon=mxgraph.aws4.rds;movable=1;resizable=1;rotatable=1;deletable=1;editable=1;locked=0;connectable=1;container=0;" vertex="1" parent="1">
          <mxGeometry x="2010" y="333" width="78" height="78" as="geometry" />
        </mxCell>
        <mxCell id="DKP5r3CZD2sw3bRLFVpG-83" style="edgeStyle=orthogonalEdgeStyle;rounded=0;orthogonalLoop=1;jettySize=auto;html=1;movable=1;resizable=1;rotatable=1;deletable=1;editable=1;locked=0;connectable=1;" edge="1" parent="1" target="DKP5r3CZD2sw3bRLFVpG-70">
          <mxGeometry relative="1" as="geometry">
            <mxPoint x="1698" y="372" as="sourcePoint" />
          </mxGeometry>
        </mxCell>
        <mxCell id="DKP5r3CZD2sw3bRLFVpG-87" style="edgeStyle=orthogonalEdgeStyle;rounded=0;orthogonalLoop=1;jettySize=auto;html=1;movable=1;resizable=1;rotatable=1;deletable=1;editable=1;locked=0;connectable=1;" edge="1" parent="1" target="DKP5r3CZD2sw3bRLFVpG-85">
          <mxGeometry relative="1" as="geometry">
            <mxPoint x="1698" y="372" as="sourcePoint" />
            <Array as="points">
              <mxPoint x="1750" y="372" />
              <mxPoint x="1750" y="439" />
              <mxPoint x="1895" y="439" />
            </Array>
          </mxGeometry>
        </mxCell>
        <mxCell id="DKP5r3CZD2sw3bRLFVpG-80" style="edgeStyle=orthogonalEdgeStyle;rounded=0;orthogonalLoop=1;jettySize=auto;html=1;movable=1;resizable=1;rotatable=1;deletable=1;editable=1;locked=0;connectable=1;" edge="1" parent="1" source="DKP5r3CZD2sw3bRLFVpG-58" target="DKP5r3CZD2sw3bRLFVpG-107">
          <mxGeometry relative="1" as="geometry">
            <mxPoint x="1620" y="372" as="targetPoint" />
          </mxGeometry>
        </mxCell>
        <mxCell id="DKP5r3CZD2sw3bRLFVpG-82" style="edgeStyle=orthogonalEdgeStyle;rounded=0;orthogonalLoop=1;jettySize=auto;html=1;entryX=0.005;entryY=0.63;entryDx=0;entryDy=0;entryPerimeter=0;movable=1;resizable=1;rotatable=1;deletable=1;editable=1;locked=0;connectable=1;" edge="1" parent="1" target="DKP5r3CZD2sw3bRLFVpG-66">
          <mxGeometry relative="1" as="geometry">
            <mxPoint x="1698" y="372" as="sourcePoint" />
          </mxGeometry>
        </mxCell>
        <mxCell id="DKP5r3CZD2sw3bRLFVpG-92" style="edgeStyle=orthogonalEdgeStyle;rounded=0;orthogonalLoop=1;jettySize=auto;html=1;entryX=0.5;entryY=0;entryDx=0;entryDy=0;movable=1;resizable=1;rotatable=1;deletable=1;editable=1;locked=0;connectable=1;" edge="1" parent="1" source="DKP5r3CZD2sw3bRLFVpG-84" target="DKP5r3CZD2sw3bRLFVpG-91">
          <mxGeometry relative="1" as="geometry" />
        </mxCell>
        <mxCell id="DKP5r3CZD2sw3bRLFVpG-84" value="Fraud Service" style="aspect=fixed;sketch=0;html=1;dashed=0;whitespace=wrap;verticalLabelPosition=bottom;verticalAlign=top;fillColor=#2875E2;strokeColor=#ffffff;points=[[0.005,0.63,0],[0.1,0.2,0],[0.9,0.2,0],[0.5,0,0],[0.995,0.63,0],[0.72,0.99,0],[0.5,1,0],[0.28,0.99,0]];shape=mxgraph.kubernetes.icon2;prIcon=pod;movable=1;resizable=1;rotatable=1;deletable=1;editable=1;locked=0;connectable=1;container=0;" vertex="1" parent="1">
          <mxGeometry x="1725" y="499" width="50" height="48" as="geometry" />
        </mxCell>
        <mxCell id="DKP5r3CZD2sw3bRLFVpG-89" style="edgeStyle=orthogonalEdgeStyle;rounded=0;orthogonalLoop=1;jettySize=auto;html=1;movable=1;resizable=1;rotatable=1;deletable=1;editable=1;locked=0;connectable=1;" edge="1" parent="1" source="DKP5r3CZD2sw3bRLFVpG-85" target="DKP5r3CZD2sw3bRLFVpG-88">
          <mxGeometry relative="1" as="geometry" />
        </mxCell>
        <mxCell id="DKP5r3CZD2sw3bRLFVpG-95" style="edgeStyle=orthogonalEdgeStyle;rounded=0;orthogonalLoop=1;jettySize=auto;html=1;movable=1;resizable=1;rotatable=1;deletable=1;editable=1;locked=0;connectable=1;" edge="1" parent="1" source="DKP5r3CZD2sw3bRLFVpG-85" target="DKP5r3CZD2sw3bRLFVpG-73">
          <mxGeometry relative="1" as="geometry" />
        </mxCell>
        <mxCell id="DKP5r3CZD2sw3bRLFVpG-85" value="Payment Service" style="aspect=fixed;sketch=0;html=1;dashed=0;whitespace=wrap;verticalLabelPosition=bottom;verticalAlign=top;fillColor=#2875E2;strokeColor=#ffffff;points=[[0.005,0.63,0],[0.1,0.2,0],[0.9,0.2,0],[0.5,0,0],[0.995,0.63,0],[0.72,0.99,0],[0.5,1,0],[0.28,0.99,0]];shape=mxgraph.kubernetes.icon2;prIcon=pod;movable=1;resizable=1;rotatable=1;deletable=1;editable=1;locked=0;connectable=1;container=0;" vertex="1" parent="1">
          <mxGeometry x="1870" y="499" width="50" height="48" as="geometry" />
        </mxCell>
        <mxCell id="DKP5r3CZD2sw3bRLFVpG-86" style="edgeStyle=orthogonalEdgeStyle;rounded=0;orthogonalLoop=1;jettySize=auto;html=1;entryX=0.5;entryY=0;entryDx=0;entryDy=0;entryPerimeter=0;exitX=0.923;exitY=0.513;exitDx=0;exitDy=0;exitPerimeter=0;movable=1;resizable=1;rotatable=1;deletable=1;editable=1;locked=0;connectable=1;" edge="1" parent="1" source="DKP5r3CZD2sw3bRLFVpG-107" target="DKP5r3CZD2sw3bRLFVpG-84">
          <mxGeometry relative="1" as="geometry">
            <mxPoint x="1698" y="372" as="sourcePoint" />
          </mxGeometry>
        </mxCell>
        <mxCell id="DKP5r3CZD2sw3bRLFVpG-88" value="external Payment Providers" style="html=1;dashed=0;whiteSpace=wrap;movable=1;resizable=1;rotatable=1;deletable=1;editable=1;locked=0;connectable=1;container=0;" vertex="1" parent="1">
          <mxGeometry x="1845" y="889" width="100" height="50" as="geometry" />
        </mxCell>
        <mxCell id="DKP5r3CZD2sw3bRLFVpG-94" value="" style="edgeStyle=orthogonalEdgeStyle;rounded=0;orthogonalLoop=1;jettySize=auto;html=1;movable=1;resizable=1;rotatable=1;deletable=1;editable=1;locked=0;connectable=1;" edge="1" parent="1" source="DKP5r3CZD2sw3bRLFVpG-91" target="DKP5r3CZD2sw3bRLFVpG-93">
          <mxGeometry relative="1" as="geometry" />
        </mxCell>
        <mxCell id="DKP5r3CZD2sw3bRLFVpG-91" value="Fraud Decision Motor" style="html=1;dashed=0;whiteSpace=wrap;movable=1;resizable=1;rotatable=1;deletable=1;editable=1;locked=0;connectable=1;container=0;" vertex="1" parent="1">
          <mxGeometry x="1701" y="677" width="100" height="50" as="geometry" />
        </mxCell>
        <mxCell id="DKP5r3CZD2sw3bRLFVpG-93" value="Any needed External Fraud detector helpers" style="html=1;dashed=0;whiteSpace=wrap;movable=1;resizable=1;rotatable=1;deletable=1;editable=1;locked=0;connectable=1;container=0;" vertex="1" parent="1">
          <mxGeometry x="1701" y="889" width="100" height="50" as="geometry" />
        </mxCell>
        <mxCell id="DKP5r3CZD2sw3bRLFVpG-104" style="edgeStyle=orthogonalEdgeStyle;rounded=0;orthogonalLoop=1;jettySize=auto;html=1;movable=1;resizable=1;rotatable=1;deletable=1;editable=1;locked=0;connectable=1;" edge="1" parent="1" source="DKP5r3CZD2sw3bRLFVpG-101" target="DKP5r3CZD2sw3bRLFVpG-75">
          <mxGeometry relative="1" as="geometry" />
        </mxCell>
        <mxCell id="DKP5r3CZD2sw3bRLFVpG-101" value="Advertisement Service" style="aspect=fixed;sketch=0;html=1;dashed=0;whitespace=wrap;verticalLabelPosition=bottom;verticalAlign=top;fillColor=#2875E2;strokeColor=#ffffff;points=[[0.005,0.63,0],[0.1,0.2,0],[0.9,0.2,0],[0.5,0,0],[0.995,0.63,0],[0.72,0.99,0],[0.5,1,0],[0.28,0.99,0]];shape=mxgraph.kubernetes.icon2;prIcon=pod;movable=1;resizable=1;rotatable=1;deletable=1;editable=1;locked=0;connectable=1;container=0;" vertex="1" parent="1">
          <mxGeometry x="1490" y="590" width="50" height="48" as="geometry" />
        </mxCell>
        <mxCell id="DKP5r3CZD2sw3bRLFVpG-105" style="edgeStyle=orthogonalEdgeStyle;rounded=0;orthogonalLoop=1;jettySize=auto;html=1;entryX=0.005;entryY=0.63;entryDx=0;entryDy=0;entryPerimeter=0;movable=1;resizable=1;rotatable=1;deletable=1;editable=1;locked=0;connectable=1;" edge="1" parent="1" source="DKP5r3CZD2sw3bRLFVpG-31" target="DKP5r3CZD2sw3bRLFVpG-101">
          <mxGeometry relative="1" as="geometry">
            <Array as="points">
              <mxPoint x="1334" y="379" />
              <mxPoint x="1334" y="620" />
              <mxPoint x="1490" y="620" />
            </Array>
          </mxGeometry>
        </mxCell>
        <mxCell id="DKP5r3CZD2sw3bRLFVpG-106" value="&lt;h1 style=&quot;margin-top: 0px;&quot;&gt;SQS&lt;/h1&gt;&lt;p&gt;Messages are only Queued to SQS when are a need for assyncronous calls, otherwise direct calls from BFF to services may apply&lt;/p&gt;" style="text;html=1;whiteSpace=wrap;overflow=hidden;rounded=0;movable=1;resizable=1;rotatable=1;deletable=1;editable=1;locked=0;connectable=1;container=0;" vertex="1" parent="1">
          <mxGeometry x="1545" y="86" width="180" height="120" as="geometry" />
        </mxCell>
        <mxCell id="DKP5r3CZD2sw3bRLFVpG-107" value="" style="sketch=0;points=[[0,0,0],[0.25,0,0],[0.5,0,0],[0.75,0,0],[1,0,0],[0,1,0],[0.25,1,0],[0.5,1,0],[0.75,1,0],[1,1,0],[0,0.25,0],[0,0.5,0],[0,0.75,0],[1,0.25,0],[1,0.5,0],[1,0.75,0]];outlineConnect=0;fontColor=#232F3E;fillColor=#E7157B;strokeColor=#ffffff;dashed=0;verticalLabelPosition=bottom;verticalAlign=top;align=center;html=1;fontSize=12;fontStyle=0;aspect=fixed;shape=mxgraph.aws4.resourceIcon;resIcon=mxgraph.aws4.sqs;movable=1;resizable=1;rotatable=1;deletable=1;editable=1;locked=0;connectable=1;container=0;" vertex="1" parent="1">
          <mxGeometry x="1623" y="333" width="78" height="78" as="geometry" />
        </mxCell>
        <mxCell id="DKP5r3CZD2sw3bRLFVpG-113" style="edgeStyle=orthogonalEdgeStyle;rounded=0;orthogonalLoop=1;jettySize=auto;html=1;movable=1;resizable=1;rotatable=1;deletable=1;editable=1;locked=0;connectable=1;" edge="1" parent="1" source="DKP5r3CZD2sw3bRLFVpG-110" target="DKP5r3CZD2sw3bRLFVpG-112">
          <mxGeometry relative="1" as="geometry" />
        </mxCell>
        <mxCell id="DKP5r3CZD2sw3bRLFVpG-114" style="edgeStyle=orthogonalEdgeStyle;rounded=0;orthogonalLoop=1;jettySize=auto;html=1;movable=1;resizable=1;rotatable=1;deletable=1;editable=1;locked=0;connectable=1;" edge="1" parent="1" source="DKP5r3CZD2sw3bRLFVpG-110" target="DKP5r3CZD2sw3bRLFVpG-75">
          <mxGeometry relative="1" as="geometry" />
        </mxCell>
        <mxCell id="DKP5r3CZD2sw3bRLFVpG-111" style="edgeStyle=orthogonalEdgeStyle;rounded=0;orthogonalLoop=1;jettySize=auto;html=1;entryX=0.005;entryY=0.63;entryDx=0;entryDy=0;entryPerimeter=0;movable=1;resizable=1;rotatable=1;deletable=1;editable=1;locked=0;connectable=1;" edge="1" parent="1" source="DKP5r3CZD2sw3bRLFVpG-58" target="DKP5r3CZD2sw3bRLFVpG-110">
          <mxGeometry relative="1" as="geometry">
            <Array as="points">
              <mxPoint x="1515" y="69" />
            </Array>
          </mxGeometry>
        </mxCell>
        <mxCell id="rQ5A5fAagPQQUPKJqJmI-33" style="edgeStyle=orthogonalEdgeStyle;rounded=0;orthogonalLoop=1;jettySize=auto;html=1;" edge="1" parent="1" source="DKP5r3CZD2sw3bRLFVpG-110" target="rQ5A5fAagPQQUPKJqJmI-31">
          <mxGeometry relative="1" as="geometry">
            <Array as="points">
              <mxPoint x="2359" y="80" />
            </Array>
          </mxGeometry>
        </mxCell>
        <mxCell id="DKP5r3CZD2sw3bRLFVpG-110" value="Host Service" style="aspect=fixed;sketch=0;html=1;dashed=0;whitespace=wrap;verticalLabelPosition=bottom;verticalAlign=top;fillColor=#2875E2;strokeColor=#ffffff;points=[[0.005,0.63,0],[0.1,0.2,0],[0.9,0.2,0],[0.5,0,0],[0.995,0.63,0],[0.72,0.99,0],[0.5,1,0],[0.28,0.99,0]];shape=mxgraph.kubernetes.icon2;prIcon=pod;movable=1;resizable=1;rotatable=1;deletable=1;editable=1;locked=0;connectable=1;container=0;" vertex="1" parent="1">
          <mxGeometry x="1795.5" y="39" width="50" height="48" as="geometry" />
        </mxCell>
        <mxCell id="DKP5r3CZD2sw3bRLFVpG-112" value="Host Database" style="sketch=0;points=[[0,0,0],[0.25,0,0],[0.5,0,0],[0.75,0,0],[1,0,0],[0,1,0],[0.25,1,0],[0.5,1,0],[0.75,1,0],[1,1,0],[0,0.25,0],[0,0.5,0],[0,0.75,0],[1,0.25,0],[1,0.5,0],[1,0.75,0]];outlineConnect=0;fontColor=#232F3E;fillColor=#C925D1;strokeColor=#ffffff;dashed=0;verticalLabelPosition=bottom;verticalAlign=top;align=center;html=1;fontSize=12;fontStyle=0;aspect=fixed;shape=mxgraph.aws4.resourceIcon;resIcon=mxgraph.aws4.rds;movable=1;resizable=1;rotatable=1;deletable=1;editable=1;locked=0;connectable=1;container=0;" vertex="1" parent="1">
          <mxGeometry x="2010" y="69" width="78" height="78" as="geometry" />
        </mxCell>
        <mxCell id="DKP5r3CZD2sw3bRLFVpG-116" value="&lt;h1 style=&quot;margin-top: 0px;&quot;&gt;Host &amp;amp; Ads Service&lt;/h1&gt;&lt;p&gt;Both services are responsible for saving and synching data to the NOSQL database, in order to make sure the Frontend is able to see all results in a fast nonblocking way&amp;nbsp;&lt;/p&gt;" style="text;html=1;whiteSpace=wrap;overflow=hidden;rounded=0;movable=1;resizable=1;rotatable=1;deletable=1;editable=1;locked=0;connectable=1;container=0;" vertex="1" parent="1">
          <mxGeometry x="1810" y="-201" width="240" height="130" as="geometry" />
        </mxCell>
        <mxCell id="DKP5r3CZD2sw3bRLFVpG-55" value="BackOffice BFF" style="aspect=fixed;sketch=0;html=1;dashed=0;whitespace=wrap;verticalLabelPosition=bottom;verticalAlign=top;fillColor=#2875E2;strokeColor=#ffffff;points=[[0.005,0.63,0],[0.1,0.2,0],[0.9,0.2,0],[0.5,0,0],[0.995,0.63,0],[0.72,0.99,0],[0.5,1,0],[0.28,0.99,0]];shape=mxgraph.kubernetes.icon2;prIcon=pod;movable=1;resizable=1;rotatable=1;deletable=1;editable=1;locked=0;connectable=1;container=0;" vertex="1" parent="1">
          <mxGeometry x="1490" y="199" width="50" height="48" as="geometry" />
        </mxCell>
        <mxCell id="rQ5A5fAagPQQUPKJqJmI-32" style="edgeStyle=orthogonalEdgeStyle;rounded=0;orthogonalLoop=1;jettySize=auto;html=1;" edge="1" parent="1" source="DKP5r3CZD2sw3bRLFVpG-66" target="rQ5A5fAagPQQUPKJqJmI-31">
          <mxGeometry relative="1" as="geometry" />
        </mxCell>
        <mxCell id="DKP5r3CZD2sw3bRLFVpG-66" value="User Service" style="aspect=fixed;sketch=0;html=1;dashed=0;whitespace=wrap;verticalLabelPosition=bottom;verticalAlign=top;fillColor=#2875E2;strokeColor=#ffffff;points=[[0.005,0.63,0],[0.1,0.2,0],[0.9,0.2,0],[0.5,0,0],[0.995,0.63,0],[0.72,0.99,0],[0.5,1,0],[0.28,0.99,0]];shape=mxgraph.kubernetes.icon2;prIcon=pod;movable=1;resizable=1;rotatable=1;deletable=1;editable=1;locked=0;connectable=1;container=0;" vertex="1" parent="1">
          <mxGeometry x="1800" y="219" width="50" height="48" as="geometry" />
        </mxCell>
        <mxCell id="rQ5A5fAagPQQUPKJqJmI-13" style="edgeStyle=orthogonalEdgeStyle;rounded=0;orthogonalLoop=1;jettySize=auto;html=1;" edge="1" parent="1" source="y81Z7oMGQZWuEHid0Psp-2" target="rQ5A5fAagPQQUPKJqJmI-12">
          <mxGeometry relative="1" as="geometry" />
        </mxCell>
        <mxCell id="y81Z7oMGQZWuEHid0Psp-2" value="" style="sketch=0;points=[[0,0,0],[0.25,0,0],[0.5,0,0],[0.75,0,0],[1,0,0],[0,1,0],[0.25,1,0],[0.5,1,0],[0.75,1,0],[1,1,0],[0,0.25,0],[0,0.5,0],[0,0.75,0],[1,0.25,0],[1,0.5,0],[1,0.75,0]];outlineConnect=0;fontColor=#232F3E;fillColor=#8C4FFF;strokeColor=#ffffff;dashed=0;verticalLabelPosition=bottom;verticalAlign=top;align=center;html=1;fontSize=12;fontStyle=0;aspect=fixed;shape=mxgraph.aws4.resourceIcon;resIcon=mxgraph.aws4.route_53;" vertex="1" parent="1">
          <mxGeometry x="392" y="-100" width="78" height="78" as="geometry" />
        </mxCell>
        <mxCell id="y81Z7oMGQZWuEHid0Psp-3" value="&lt;h1 style=&quot;margin-top: 0px;&quot;&gt;&lt;span style=&quot;background-color: transparent; color: light-dark(rgb(0, 0, 0), rgb(255, 255, 255));&quot;&gt;Custom DNS&lt;br&gt;&lt;/span&gt;&lt;span style=&quot;font-size: 12px; font-weight: 400;&quot;&gt;Custom DNS to application&lt;br&gt;www.airbnb.com&lt;/span&gt;&lt;/h1&gt;" style="text;html=1;whiteSpace=wrap;overflow=hidden;rounded=0;movable=1;resizable=1;rotatable=1;deletable=1;editable=1;locked=0;connectable=1;container=0;" vertex="1" parent="1">
          <mxGeometry x="360" y="-13" width="160" height="160" as="geometry" />
        </mxCell>
        <mxCell id="rQ5A5fAagPQQUPKJqJmI-3" value="" style="sketch=0;points=[[0,0,0],[0.25,0,0],[0.5,0,0],[0.75,0,0],[1,0,0],[0,1,0],[0.25,1,0],[0.5,1,0],[0.75,1,0],[1,1,0],[0,0.25,0],[0,0.5,0],[0,0.75,0],[1,0.25,0],[1,0.5,0],[1,0.75,0]];outlineConnect=0;fontColor=#232F3E;fillColor=#ED7100;strokeColor=#ffffff;dashed=0;verticalLabelPosition=bottom;verticalAlign=top;align=center;html=1;fontSize=12;fontStyle=0;aspect=fixed;shape=mxgraph.aws4.resourceIcon;resIcon=mxgraph.aws4.eks;" vertex="1" parent="1">
          <mxGeometry x="1330" y="-58" width="38" height="38" as="geometry" />
        </mxCell>
        <mxCell id="rQ5A5fAagPQQUPKJqJmI-4" value="S3 Bucket" style="verticalLabelPosition=bottom;html=1;verticalAlign=top;strokeWidth=1;align=center;outlineConnect=0;dashed=0;outlineConnect=0;shape=mxgraph.aws3d.s3Bucket;fillColor=#4286c5;strokeColor=#57A2D8;aspect=fixed;" vertex="1" parent="1">
          <mxGeometry x="688" y="-92.89999999999999" width="61.5" height="63.800000000000004" as="geometry" />
        </mxCell>
        <mxCell id="rQ5A5fAagPQQUPKJqJmI-5" value="&lt;h1 style=&quot;margin-top: 0px;&quot;&gt;S3 Bucket&lt;br&gt;&lt;span style=&quot;font-size: 12px; font-weight: 400;&quot;&gt;Holds static SPA content&lt;/span&gt;&lt;/h1&gt;" style="text;html=1;whiteSpace=wrap;overflow=hidden;rounded=0;movable=1;resizable=1;rotatable=1;deletable=1;editable=1;locked=0;connectable=1;container=0;" vertex="1" parent="1">
          <mxGeometry x="740" y="-152.89999999999998" width="180" height="120" as="geometry" />
        </mxCell>
        <mxCell id="rQ5A5fAagPQQUPKJqJmI-8" style="edgeStyle=orthogonalEdgeStyle;rounded=0;orthogonalLoop=1;jettySize=auto;html=1;entryX=0;entryY=0.5;entryDx=0;entryDy=0;entryPerimeter=0;" edge="1" parent="1" source="DKP5r3CZD2sw3bRLFVpG-21" target="y81Z7oMGQZWuEHid0Psp-2">
          <mxGeometry relative="1" as="geometry" />
        </mxCell>
        <mxCell id="rQ5A5fAagPQQUPKJqJmI-9" style="edgeStyle=orthogonalEdgeStyle;rounded=0;orthogonalLoop=1;jettySize=auto;html=1;entryX=0;entryY=0.5;entryDx=0;entryDy=0;entryPerimeter=0;" edge="1" parent="1" source="DKP5r3CZD2sw3bRLFVpG-43" target="y81Z7oMGQZWuEHid0Psp-2">
          <mxGeometry relative="1" as="geometry" />
        </mxCell>
        <mxCell id="rQ5A5fAagPQQUPKJqJmI-10" style="edgeStyle=orthogonalEdgeStyle;rounded=0;orthogonalLoop=1;jettySize=auto;html=1;entryX=0;entryY=0.5;entryDx=0;entryDy=0;entryPerimeter=0;" edge="1" parent="1" source="DKP5r3CZD2sw3bRLFVpG-42" target="y81Z7oMGQZWuEHid0Psp-2">
          <mxGeometry relative="1" as="geometry" />
        </mxCell>
        <mxCell id="rQ5A5fAagPQQUPKJqJmI-11" value="&lt;h1 style=&quot;margin-top: 0px;&quot;&gt;Static content&amp;nbsp;&lt;br&gt;&lt;span style=&quot;font-size: 12px; font-weight: 400;&quot;&gt;Static content gets delivered to FE users&lt;/span&gt;&lt;/h1&gt;" style="text;html=1;whiteSpace=wrap;overflow=hidden;rounded=0;movable=1;resizable=1;rotatable=1;deletable=1;editable=1;locked=0;connectable=1;container=0;" vertex="1" parent="1">
          <mxGeometry x="120" y="20" width="180" height="120" as="geometry" />
        </mxCell>
        <mxCell id="rQ5A5fAagPQQUPKJqJmI-14" style="edgeStyle=orthogonalEdgeStyle;rounded=0;orthogonalLoop=1;jettySize=auto;html=1;" edge="1" parent="1" source="rQ5A5fAagPQQUPKJqJmI-12" target="rQ5A5fAagPQQUPKJqJmI-4">
          <mxGeometry relative="1" as="geometry" />
        </mxCell>
        <mxCell id="rQ5A5fAagPQQUPKJqJmI-12" value="" style="sketch=0;points=[[0,0,0],[0.25,0,0],[0.5,0,0],[0.75,0,0],[1,0,0],[0,1,0],[0.25,1,0],[0.5,1,0],[0.75,1,0],[1,1,0],[0,0.25,0],[0,0.5,0],[0,0.75,0],[1,0.25,0],[1,0.5,0],[1,0.75,0]];outlineConnect=0;fontColor=#232F3E;fillColor=#8C4FFF;strokeColor=#ffffff;dashed=0;verticalLabelPosition=bottom;verticalAlign=top;align=center;html=1;fontSize=12;fontStyle=0;aspect=fixed;shape=mxgraph.aws4.resourceIcon;resIcon=mxgraph.aws4.cloudfront;" vertex="1" parent="1">
          <mxGeometry x="550" y="-100" width="78" height="78" as="geometry" />
        </mxCell>
        <mxCell id="rQ5A5fAagPQQUPKJqJmI-15" style="edgeStyle=orthogonalEdgeStyle;rounded=0;orthogonalLoop=1;jettySize=auto;html=1;exitX=0;exitY=0.75;exitDx=0;exitDy=0;entryX=0;entryY=0.833;entryDx=0;entryDy=0;entryPerimeter=0;" edge="1" parent="1" source="rQ5A5fAagPQQUPKJqJmI-5" target="rQ5A5fAagPQQUPKJqJmI-5">
          <mxGeometry relative="1" as="geometry" />
        </mxCell>
        <mxCell id="rQ5A5fAagPQQUPKJqJmI-16" value="&lt;h1 style=&quot;margin-top: 0px;&quot;&gt;Cloudfront&lt;/h1&gt;&lt;p&gt;Serves static content that&#39;s under the S3 bucket + caching&lt;/p&gt;" style="text;html=1;whiteSpace=wrap;overflow=hidden;rounded=0;" vertex="1" parent="1">
          <mxGeometry x="600" y="-10" width="180" height="87" as="geometry" />
        </mxCell>
        <mxCell id="rQ5A5fAagPQQUPKJqJmI-19" value="&lt;h1 style=&quot;margin-top: 0px;&quot;&gt;SPA + SSR &amp;amp; Backend calls&lt;/h1&gt;&lt;p&gt;SPA Loads custom HTML from Backend using SSR&lt;br&gt;SPA Calls while using HTTP Rest API Calls to the backend&lt;/p&gt;" style="text;html=1;whiteSpace=wrap;overflow=hidden;rounded=0;" vertex="1" parent="1">
          <mxGeometry x="600" y="281" width="330" height="87" as="geometry" />
        </mxCell>
        <mxCell id="rQ5A5fAagPQQUPKJqJmI-20" value="Node SSR Service" style="aspect=fixed;sketch=0;html=1;dashed=0;whitespace=wrap;verticalLabelPosition=bottom;verticalAlign=top;fillColor=#2875E2;strokeColor=#ffffff;points=[[0.005,0.63,0],[0.1,0.2,0],[0.9,0.2,0],[0.5,0,0],[0.995,0.63,0],[0.72,0.99,0],[0.5,1,0],[0.28,0.99,0]];shape=mxgraph.kubernetes.icon2;prIcon=pod;movable=1;resizable=1;rotatable=1;deletable=1;editable=1;locked=0;connectable=1;container=0;" vertex="1" parent="1">
          <mxGeometry x="1490" y="-32.89999999999998" width="50" height="48" as="geometry" />
        </mxCell>
        <mxCell id="rQ5A5fAagPQQUPKJqJmI-23" style="edgeStyle=orthogonalEdgeStyle;rounded=0;orthogonalLoop=1;jettySize=auto;html=1;entryX=0.005;entryY=0.63;entryDx=0;entryDy=0;entryPerimeter=0;" edge="1" parent="1" source="DKP5r3CZD2sw3bRLFVpG-31" target="rQ5A5fAagPQQUPKJqJmI-20">
          <mxGeometry relative="1" as="geometry" />
        </mxCell>
        <mxCell id="rQ5A5fAagPQQUPKJqJmI-24" value="Istio" style="sketch=0;html=1;verticalAlign=top;labelPosition=center;verticalLabelPosition=bottom;align=center;spacingTop=-6;fontSize=11;fontStyle=1;fontColor=#999999;shape=image;aspect=fixed;imageAspect=0;image=data:image/svg+xml,PHN2ZyB4bWxucz0iaHR0cDovL3d3dy53My5vcmcvMjAwMC9zdmciIHhtbG5zOnY9Imh0dHBzOi8vdmVjdGEuaW8vbmFubyIgd2lkdGg9IjE2MCIgaGVpZ2h0PSIyNDAiIHZpZXdCb3g9IjAgMCAxNjAgMjQwIj4mI3hhOwk8c3R5bGUgdHlwZT0idGV4dC9jc3MiPiYjeGE7CS5zdDB7ZmlsbDojNDY2YmIwO30mI3hhOwk8L3N0eWxlPiYjeGE7CTxwYXRoIGNsYXNzPSJzdDAiIGQ9Ik02MCAyNDBMMCAyMTBoMTYwem0wLTE2MEwwIDIwMGw2MC0xMHpNNzAgMHYxOTBsOTAgMTB6Ii8+JiN4YTs8L3N2Zz4=;" vertex="1" parent="1">
          <mxGeometry x="1770" y="460" width="27" height="42" as="geometry" />
        </mxCell>
        <mxCell id="rQ5A5fAagPQQUPKJqJmI-25" value="Istio" style="sketch=0;html=1;verticalAlign=top;labelPosition=center;verticalLabelPosition=bottom;align=center;spacingTop=-6;fontSize=11;fontStyle=1;fontColor=#999999;shape=image;aspect=fixed;imageAspect=0;image=data:image/svg+xml,PHN2ZyB4bWxucz0iaHR0cDovL3d3dy53My5vcmcvMjAwMC9zdmciIHhtbG5zOnY9Imh0dHBzOi8vdmVjdGEuaW8vbmFubyIgd2lkdGg9IjE2MCIgaGVpZ2h0PSIyNDAiIHZpZXdCb3g9IjAgMCAxNjAgMjQwIj4mI3hhOwk8c3R5bGUgdHlwZT0idGV4dC9jc3MiPiYjeGE7CS5zdDB7ZmlsbDojNDY2YmIwO30mI3hhOwk8L3N0eWxlPiYjeGE7CTxwYXRoIGNsYXNzPSJzdDAiIGQ9Ik02MCAyNDBMMCAyMTBoMTYwem0wLTE2MEwwIDIwMGw2MC0xMHpNNzAgMHYxOTBsOTAgMTB6Ii8+JiN4YTs8L3N2Zz4=;" vertex="1" parent="1">
          <mxGeometry x="1916.5" y="457" width="27" height="42" as="geometry" />
        </mxCell>
        <mxCell id="rQ5A5fAagPQQUPKJqJmI-26" value="Istio" style="sketch=0;html=1;verticalAlign=top;labelPosition=center;verticalLabelPosition=bottom;align=center;spacingTop=-6;fontSize=11;fontStyle=1;fontColor=#999999;shape=image;aspect=fixed;imageAspect=0;image=data:image/svg+xml,PHN2ZyB4bWxucz0iaHR0cDovL3d3dy53My5vcmcvMjAwMC9zdmciIHhtbG5zOnY9Imh0dHBzOi8vdmVjdGEuaW8vbmFubyIgd2lkdGg9IjE2MCIgaGVpZ2h0PSIyNDAiIHZpZXdCb3g9IjAgMCAxNjAgMjQwIj4mI3hhOwk8c3R5bGUgdHlwZT0idGV4dC9jc3MiPiYjeGE7CS5zdDB7ZmlsbDojNDY2YmIwO30mI3hhOwk8L3N0eWxlPiYjeGE7CTxwYXRoIGNsYXNzPSJzdDAiIGQ9Ik02MCAyNDBMMCAyMTBoMTYwem0wLTE2MEwwIDIwMGw2MC0xMHpNNzAgMHYxOTBsOTAgMTB6Ii8+JiN4YTs8L3N2Zz4=;" vertex="1" parent="1">
          <mxGeometry x="1560" y="540" width="27" height="42" as="geometry" />
        </mxCell>
        <mxCell id="rQ5A5fAagPQQUPKJqJmI-27" value="Istio" style="sketch=0;html=1;verticalAlign=top;labelPosition=center;verticalLabelPosition=bottom;align=center;spacingTop=-6;fontSize=11;fontStyle=1;fontColor=#999999;shape=image;aspect=fixed;imageAspect=0;image=data:image/svg+xml,PHN2ZyB4bWxucz0iaHR0cDovL3d3dy53My5vcmcvMjAwMC9zdmciIHhtbG5zOnY9Imh0dHBzOi8vdmVjdGEuaW8vbmFubyIgd2lkdGg9IjE2MCIgaGVpZ2h0PSIyNDAiIHZpZXdCb3g9IjAgMCAxNjAgMjQwIj4mI3hhOwk8c3R5bGUgdHlwZT0idGV4dC9jc3MiPiYjeGE7CS5zdDB7ZmlsbDojNDY2YmIwO30mI3hhOwk8L3N0eWxlPiYjeGE7CTxwYXRoIGNsYXNzPSJzdDAiIGQ9Ik02MCAyNDBMMCAyMTBoMTYwem0wLTE2MEwwIDIwMGw2MC0xMHpNNzAgMHYxOTBsOTAgMTB6Ii8+JiN4YTs8L3N2Zz4=;" vertex="1" parent="1">
          <mxGeometry x="1545" y="388" width="27" height="42" as="geometry" />
        </mxCell>
        <mxCell id="rQ5A5fAagPQQUPKJqJmI-28" value="Istio" style="sketch=0;html=1;verticalAlign=top;labelPosition=center;verticalLabelPosition=bottom;align=center;spacingTop=-6;fontSize=11;fontStyle=1;fontColor=#999999;shape=image;aspect=fixed;imageAspect=0;image=data:image/svg+xml,PHN2ZyB4bWxucz0iaHR0cDovL3d3dy53My5vcmcvMjAwMC9zdmciIHhtbG5zOnY9Imh0dHBzOi8vdmVjdGEuaW8vbmFubyIgd2lkdGg9IjE2MCIgaGVpZ2h0PSIyNDAiIHZpZXdCb3g9IjAgMCAxNjAgMjQwIj4mI3hhOwk8c3R5bGUgdHlwZT0idGV4dC9jc3MiPiYjeGE7CS5zdDB7ZmlsbDojNDY2YmIwO30mI3hhOwk8L3N0eWxlPiYjeGE7CTxwYXRoIGNsYXNzPSJzdDAiIGQ9Ik02MCAyNDBMMCAyMTBoMTYwem0wLTE2MEwwIDIwMGw2MC0xMHpNNzAgMHYxOTBsOTAgMTB6Ii8+JiN4YTs8L3N2Zz4=;" vertex="1" parent="1">
          <mxGeometry x="1560" y="240" width="27" height="42" as="geometry" />
        </mxCell>
        <mxCell id="rQ5A5fAagPQQUPKJqJmI-29" value="&lt;h1 style=&quot;margin-top: 0px;&quot;&gt;ISTIO Sidecar&lt;/h1&gt;&lt;p&gt;Istio allows to have a more granullar control over third party calls, introduces circuit breaker and cache if needed&lt;/p&gt;" style="text;html=1;whiteSpace=wrap;overflow=hidden;rounded=0;" vertex="1" parent="1">
          <mxGeometry x="1908" y="620" width="180" height="120" as="geometry" />
        </mxCell>
        <mxCell id="rQ5A5fAagPQQUPKJqJmI-30" value="APM Monitoring + Alerts" style="rounded=0;whiteSpace=wrap;html=1;" vertex="1" parent="1">
          <mxGeometry x="350" y="-290" width="2200" height="60" as="geometry" />
        </mxCell>
        <mxCell id="rQ5A5fAagPQQUPKJqJmI-31" value="" style="sketch=0;points=[[0,0,0],[0.25,0,0],[0.5,0,0],[0.75,0,0],[1,0,0],[0,1,0],[0.25,1,0],[0.5,1,0],[0.75,1,0],[1,1,0],[0,0.25,0],[0,0.5,0],[0,0.75,0],[1,0.25,0],[1,0.5,0],[1,0.75,0]];outlineConnect=0;fontColor=#232F3E;fillColor=#E7157B;strokeColor=#ffffff;dashed=0;verticalLabelPosition=bottom;verticalAlign=top;align=center;html=1;fontSize=12;fontStyle=0;aspect=fixed;shape=mxgraph.aws4.resourceIcon;resIcon=mxgraph.aws4.sns;" vertex="1" parent="1">
          <mxGeometry x="2320" y="205" width="78" height="78" as="geometry" />
        </mxCell>
        <mxCell id="DKP5r3CZD2sw3bRLFVpG-68" value="User Database" style="sketch=0;points=[[0,0,0],[0.25,0,0],[0.5,0,0],[0.75,0,0],[1,0,0],[0,1,0],[0.25,1,0],[0.5,1,0],[0.75,1,0],[1,1,0],[0,0.25,0],[0,0.5,0],[0,0.75,0],[1,0.25,0],[1,0.5,0],[1,0.75,0]];outlineConnect=0;fontColor=#232F3E;fillColor=#C925D1;strokeColor=#ffffff;dashed=0;verticalLabelPosition=bottom;verticalAlign=top;align=center;html=1;fontSize=12;fontStyle=0;aspect=fixed;shape=mxgraph.aws4.resourceIcon;resIcon=mxgraph.aws4.rds;movable=1;resizable=1;rotatable=1;deletable=1;editable=1;locked=0;connectable=1;container=0;" vertex="1" parent="1">
          <mxGeometry x="2010" y="204" width="78" height="78" as="geometry" />
        </mxCell>
        <mxCell id="rQ5A5fAagPQQUPKJqJmI-17" value="&lt;h1 style=&quot;margin-top: 0px;&quot;&gt;Phone Apps&lt;br&gt;&lt;span style=&quot;font-size: 12px; font-weight: 400;&quot;&gt;Phone apps uses SSR to reduce amount of deployments on the app store&lt;/span&gt;&lt;/h1&gt;" style="text;html=1;whiteSpace=wrap;overflow=hidden;rounded=0;movable=1;resizable=1;rotatable=1;deletable=1;editable=1;locked=0;connectable=1;container=0;" vertex="1" parent="1">
          <mxGeometry x="20" y="568" width="180" height="120" as="geometry" />
        </mxCell>
        <mxCell id="DKP5r3CZD2sw3bRLFVpG-108" value="&lt;h1 style=&quot;margin-top: 0px;&quot;&gt;Advertisement service&lt;/h1&gt;&lt;p&gt;Loads all tenentement ads from a NOSQL database, makes fetching faster without any interruptions to critic-services&amp;nbsp;&lt;/p&gt;" style="text;html=1;whiteSpace=wrap;overflow=hidden;rounded=0;movable=1;resizable=1;rotatable=1;deletable=1;editable=1;locked=0;connectable=1;container=0;" vertex="1" parent="1">
          <mxGeometry x="1360" y="650" width="271" height="140" as="geometry" />
        </mxCell>
        <mxCell id="rQ5A5fAagPQQUPKJqJmI-37" value="&lt;h1 style=&quot;margin-top: 0px;&quot;&gt;SNS Service &amp;amp; SES Service&lt;/h1&gt;&lt;p&gt;SNS is ised everytime we need to push a notification, sms or e-mail to the user if needed&lt;br&gt;&lt;br&gt;SES is ised when a more rich e-mail approach is needed&lt;/p&gt;" style="text;html=1;whiteSpace=wrap;overflow=hidden;rounded=0;" vertex="1" parent="1">
          <mxGeometry x="2570" y="198" width="290" height="180" as="geometry" />
        </mxCell>
        <mxCell id="rQ5A5fAagPQQUPKJqJmI-39" value="" style="outlineConnect=0;dashed=0;verticalLabelPosition=bottom;verticalAlign=top;align=center;html=1;shape=mxgraph.aws3.ses;fillColor=#D9A741;gradientColor=none;" vertex="1" parent="1">
          <mxGeometry x="2421" y="199" width="79.5" height="93" as="geometry" />
        </mxCell>
        <mxCell id="rQ5A5fAagPQQUPKJqJmI-43" value="EKS" style="fillColor=none;strokeColor=#5A6C86;dashed=1;verticalAlign=top;fontStyle=0;fontColor=#5A6C86;whiteSpace=wrap;html=1;" vertex="1" parent="1">
          <mxGeometry x="1320" y="-70" width="660" height="740" as="geometry" />
        </mxCell>
      </root>
    </mxGraphModel>
  </diagram>
</mxfile>
